<svg width="36" height="36" viewBox="0 0 36 36" fill="none" xmlns="http://www.w3.org/2000/svg">
<circle cx="18" cy="18" r="18" fill="#F7F6F0"/>
<g clip-path="url(#clip0_431_193)">
<path d="M28 18C28 12.4772 23.5228 8 18 8C12.4772 8 8 12.4771 8 18C8 22.9913 11.6569 27.1284 16.4375 27.8785V20.8906H13.8984V18H16.4375V15.7969C16.4375 13.2906 17.9305 11.9063 20.2146 11.9063C21.3088 11.9063 22.4531 12.1016 22.4531 12.1016V14.5625H21.1922C19.9498 14.5625 19.5625 15.3334 19.5625 16.1242V18H22.3359L21.8926 20.8906H19.5625V27.8785C24.3431 27.1284 28 22.9913 28 18Z" fill="#1877F2"/>
<path d="M21.8926 20.8906L22.3359 18H19.5625V16.1242C19.5625 15.3333 19.9499 14.5625 21.1922 14.5625H22.4531V12.1016C22.4531 12.1016 21.3088 11.9062 20.2146 11.9062C17.9305 11.9062 16.4375 13.2906 16.4375 15.7969V18H13.8984V20.8906H16.4375V27.8785C16.9544 27.9595 17.4768 28.0001 18 28C18.5232 28.0002 19.0456 27.9595 19.5625 27.8785V20.8906H21.8926Z" fill="white"/>
</g>
<defs>
<clipPath id="clip0_431_193">
<rect width="20" height="20" fill="white" transform="translate(8 8)"/>
</clipPath>
</defs>
</svg>
