<svg width="36" height="36" viewBox="0 0 36 36" fill="none" xmlns="http://www.w3.org/2000/svg">
<circle cx="18" cy="18" r="18" fill="#F7F6F0"/>
<g clip-path="url(#clip0_431_194)">
<path d="M23.3125 8H12.6875C10.0987 8 8 10.0987 8 12.6875V23.3125C8 25.9013 10.0987 28 12.6875 28H23.3125C25.9013 28 28 25.9013 28 23.3125V12.6875C28 10.0987 25.9013 8 23.3125 8Z" fill="url(#paint0_radial_431_194)"/>
<path d="M23.3125 8H12.6875C10.0987 8 8 10.0987 8 12.6875V23.3125C8 25.9013 10.0987 28 12.6875 28H23.3125C25.9013 28 28 25.9013 28 23.3125V12.6875C28 10.0987 25.9013 8 23.3125 8Z" fill="url(#paint1_radial_431_194)"/>
<path d="M18.0007 10.1875C15.879 10.1875 15.6127 10.1968 14.7794 10.2347C13.9477 10.2728 13.3799 10.4045 12.8832 10.5977C12.3693 10.7972 11.9334 11.0641 11.4992 11.4985C11.0646 11.9328 10.7977 12.3687 10.5975 12.8823C10.4038 13.3792 10.272 13.9472 10.2345 14.7785C10.1973 15.6119 10.1875 15.8783 10.1875 18.0001C10.1875 20.1219 10.1969 20.3873 10.2347 21.2206C10.273 22.0523 10.4046 22.6201 10.5977 23.1168C10.7973 23.6307 11.0643 24.0666 11.4987 24.5008C11.9328 24.9354 12.3687 25.203 12.8822 25.4025C13.3793 25.5957 13.9471 25.7273 14.7787 25.7655C15.612 25.8034 15.8781 25.8127 17.9998 25.8127C20.1217 25.8127 20.3872 25.8034 21.2205 25.7655C22.0522 25.7273 22.6205 25.5957 23.1177 25.4025C23.6313 25.203 24.0666 24.9354 24.5006 24.5008C24.9352 24.0666 25.2021 23.6307 25.4023 23.117C25.5944 22.6201 25.7262 22.0522 25.7653 21.2208C25.8027 20.3875 25.8125 20.1219 25.8125 18.0001C25.8125 15.8783 25.8027 15.612 25.7653 14.7787C25.7262 13.947 25.5944 13.3793 25.4023 12.8826C25.2021 12.3687 24.9352 11.9328 24.5006 11.4985C24.0661 11.064 23.6315 10.797 23.1172 10.5977C22.6191 10.4045 22.0511 10.2727 21.2194 10.2347C20.386 10.1968 20.1207 10.1875 17.9983 10.1875H18.0007ZM17.2998 11.5954C17.5079 11.5951 17.74 11.5954 18.0007 11.5954C20.0867 11.5954 20.3339 11.6029 21.1577 11.6403C21.9194 11.6752 22.3328 11.8024 22.6082 11.9094C22.9728 12.0509 23.2327 12.2202 23.506 12.4938C23.7795 12.7672 23.9487 13.0276 24.0906 13.3922C24.1976 13.6672 24.325 14.0806 24.3597 14.8423C24.3971 15.6659 24.4052 15.9133 24.4052 17.9983C24.4052 20.0833 24.3971 20.3307 24.3597 21.1542C24.3248 21.9159 24.1976 22.3294 24.0906 22.6045C23.9491 22.9691 23.7795 23.2287 23.506 23.502C23.2326 23.7754 22.973 23.9446 22.6082 24.0863C22.3331 24.1937 21.9194 24.3206 21.1577 24.3555C20.3341 24.3929 20.0867 24.401 18.0007 24.401C15.9146 24.401 15.6673 24.3929 14.8438 24.3555C14.0821 24.3203 13.6687 24.193 13.393 24.0861C13.0285 23.9445 12.768 23.7752 12.4946 23.5018C12.2212 23.2284 12.052 22.9686 11.91 22.6038C11.803 22.3287 11.6756 21.9153 11.6409 21.1536C11.6035 20.33 11.596 20.0827 11.596 17.9963C11.596 15.9101 11.6035 15.664 11.6409 14.8404C11.6758 14.0787 11.803 13.6652 11.91 13.3898C12.0516 13.0252 12.2212 12.7648 12.4947 12.4914C12.7681 12.218 13.0285 12.0487 13.3931 11.9068C13.6685 11.7994 14.0821 11.6724 14.8438 11.6374C15.5645 11.6048 15.8438 11.5951 17.2998 11.5934V11.5954ZM22.171 12.8926C21.6534 12.8926 21.2335 13.3121 21.2335 13.8298C21.2335 14.3473 21.6534 14.7673 22.171 14.7673C22.6886 14.7673 23.1085 14.3473 23.1085 13.8298C23.1085 13.3122 22.6886 12.8923 22.171 12.8923V12.8926ZM18.0007 13.988C15.7851 13.988 13.9887 15.7844 13.9887 18.0001C13.9887 20.2158 15.7851 22.0113 18.0007 22.0113C20.2164 22.0113 22.0122 20.2158 22.0122 18.0001C22.0122 15.7845 20.2163 13.988 18.0005 13.988H18.0007ZM18.0007 15.3959C19.4389 15.3959 20.6049 16.5617 20.6049 18.0001C20.6049 19.4383 19.4389 20.6043 18.0007 20.6043C16.5624 20.6043 15.3966 19.4383 15.3966 18.0001C15.3966 16.5617 16.5624 15.3959 18.0007 15.3959Z" fill="white"/>
</g>
<defs>
<radialGradient id="paint0_radial_431_194" cx="0" cy="0" r="1" gradientUnits="userSpaceOnUse" gradientTransform="translate(13.3125 29.5404) rotate(-90) scale(19.8215 18.4355)">
<stop stop-color="#FFDD55"/>
<stop offset="0.1" stop-color="#FFDD55"/>
<stop offset="0.5" stop-color="#FF543E"/>
<stop offset="1" stop-color="#C837AB"/>
</radialGradient>
<radialGradient id="paint1_radial_431_194" cx="0" cy="0" r="1" gradientUnits="userSpaceOnUse" gradientTransform="translate(4.64992 9.4407) rotate(78.681) scale(8.86031 36.5225)">
<stop stop-color="#3771C8"/>
<stop offset="0.128" stop-color="#3771C8"/>
<stop offset="1" stop-color="#6600FF" stop-opacity="0"/>
</radialGradient>
<clipPath id="clip0_431_194">
<rect width="20" height="20" fill="white" transform="translate(8 8)"/>
</clipPath>
</defs>
</svg>
