<svg width="36" height="36" viewBox="0 0 36 36" fill="none" xmlns="http://www.w3.org/2000/svg">
<circle cx="18" cy="18" r="18" fill="#F7F6F0"/>
<path d="M25.9525 13.9199C25.9647 14.0963 25.9647 14.2726 25.9647 14.4505C25.9647 19.8724 21.837 26.1255 14.2897 26.1255V26.1224C12.06 26.1255 9.87655 25.4869 8 24.2827C8.32422 24.3218 8.65 24.3413 8.97656 24.3421C10.8245 24.3436 12.6194 23.7238 14.0727 22.5822C13.2164 22.5661 12.3866 22.2827 11.6993 21.7718C11.012 21.2609 10.5015 20.548 10.2392 19.7327C10.8544 19.8515 11.4881 19.8269 12.0919 19.6619C10.1775 19.2752 8.80031 17.5933 8.80031 15.6401V15.588C9.37099 15.9059 10.0097 16.0821 10.6627 16.1016C8.85938 14.8966 8.30391 12.498 9.39266 10.6229C10.4228 11.8905 11.7081 12.9272 13.165 13.6657C14.6219 14.4042 16.2179 14.828 17.8492 14.9096C17.6866 14.2094 17.7107 13.4788 17.919 12.7908C18.1274 12.1028 18.5127 11.4816 19.0364 10.9893C20.6891 9.43568 23.2883 9.51537 24.8417 11.1672C25.7607 10.9858 26.6419 10.6489 27.4475 10.171C27.1412 11.1211 26.5002 11.9276 25.6437 12.4405C26.4571 12.3446 27.2515 12.1268 28 11.7944C27.4493 12.6191 26.756 13.3388 25.9525 13.9199Z" fill="#1D9BF0"/>
</svg>
