<svg width="36" height="36" viewBox="0 0 36 36" fill="none" xmlns="http://www.w3.org/2000/svg">
<circle cx="18" cy="18" r="18" fill="#F7F6F0"/>
<g clip-path="url(#clip0_431_196)">
<path d="M28.5362 12.3396C28.4158 11.8874 28.1808 11.4751 27.8547 11.1439C27.5287 10.8126 27.1228 10.5739 26.6777 10.4515C25.0481 10 18.4894 10 18.4894 10C18.4894 10 11.9303 10.0137 10.3007 10.4652C9.85552 10.5876 9.44971 10.8263 9.12363 11.1576C8.79756 11.4888 8.5626 11.9011 8.44216 12.3533C7.94924 15.2948 7.75802 19.777 8.4557 22.6008C8.57615 23.053 8.81111 23.4653 9.13719 23.7966C9.46326 24.1278 9.86907 24.3665 10.3142 24.4889C11.9438 24.9404 18.5027 24.9404 18.5027 24.9404C18.5027 24.9404 25.0615 24.9404 26.6911 24.4889C27.1362 24.3665 27.5421 24.1278 27.8681 23.7966C28.1942 23.4653 28.4292 23.053 28.5497 22.6008C29.0696 19.6552 29.2298 15.1758 28.5362 12.3396Z" fill="#FF0000"/>
<path d="M16.4017 20.6716L21.8427 17.4701L16.4017 14.2686V20.6716Z" fill="white"/>
</g>
<defs>
<clipPath id="clip0_431_196">
<rect width="21" height="15" fill="white" transform="translate(8 10)"/>
</clipPath>
</defs>
</svg>
